<svg width="390" height="844" viewBox="0 0 390 844" fill="none" xmlns="http://www.w3.org/2000/svg">
<rect width="390" height="844" fill="#F7F7F7"/>
<path d="M122 429.836V413.061V429.836ZM122.016 412.195H129.705C133.964 412.195 137.034 412.692 138.913 413.681C140.792 414.671 141.732 416.053 141.732 417.824C141.732 419.017 141.318 419.984 140.491 420.723C139.664 421.462 138.6 422.017 137.297 422.382C135.919 422.787 134.453 422.998 132.899 423.018V423.164C133.826 423.202 134.641 423.31 135.342 423.483C137.096 423.907 138.286 424.665 138.913 425.763L141.919 430.891C142.161 431.303 142.687 432.127 143 432.127V432.512L138.913 432.4C136.858 432.4 135.355 431.584 134.403 429.948L131.127 424.288C130.823 423.764 130.334 423.456 129.814 423.456C128.925 423.456 128.201 424.342 128.201 425.439V429.805C128.201 430.798 128.28 432.131 128.28 432.131V432.404H122.016V431.973V412.195ZM129.705 422.729C131.459 422.729 132.837 422.305 133.839 421.458C134.841 420.611 135.342 419.398 135.342 417.82C135.342 416.241 134.841 415.033 133.839 414.186C132.837 413.339 131.459 412.915 129.705 412.915H128.201V422.729H129.705Z" fill="#0055AC"/>
<path d="M224.136 429.836V413.061V429.836ZM224.152 412.195H231.841C236.101 412.195 239.17 412.692 241.049 413.681C242.928 414.671 243.868 416.053 243.868 417.824C243.868 419.017 243.454 419.984 242.628 420.723C241.801 421.462 240.736 422.017 239.433 422.382C238.055 422.787 236.589 422.998 235.036 423.018V423.164C235.963 423.202 236.777 423.31 237.479 423.483C239.233 423.907 240.423 424.665 241.049 425.763L244.056 430.891C244.297 431.303 244.823 432.127 245.136 432.127V432.512L241.049 432.4C238.995 432.4 237.491 431.584 236.539 429.948L233.263 424.288C232.959 423.764 232.471 423.456 231.951 423.456C231.061 423.456 230.338 424.342 230.338 425.439V429.805C230.338 430.798 230.416 432.131 230.416 432.131V432.404H224.152V431.973V412.195ZM231.841 422.736C233.595 422.736 234.973 422.313 235.975 421.466C236.978 420.619 237.479 419.406 237.479 417.828C237.479 416.249 236.978 415.04 235.975 414.193C234.973 413.346 233.595 412.923 231.841 412.923H230.338V422.729H231.841V422.736Z" fill="#0055AC"/>
<path d="M157.708 422.789H151.273V431.788H160.336C160.336 430.568 160.747 429.437 161.57 428.392C161.93 427.947 162.354 427.579 162.843 427.288H164V432.512H144.925V432.078L144.909 431.644V413.066L144.925 412.633V412.195H163.229V417.422H162.072C161.583 417.132 161.159 416.764 160.799 416.319C159.976 415.273 159.565 414.143 159.565 412.923H151.273V421.065H157.708" fill="#0055AC"/>
<path d="M177.816 429.716C175.605 427.848 174.5 425.198 174.5 421.758C174.5 419.497 174.985 417.558 175.955 415.939C176.925 414.319 178.288 413.092 180.045 412.254C181.801 411.421 183.833 411 186.142 411C187.542 411 188.954 411.322 190.379 411.971C190.919 412.207 191.46 412.522 192 412.915C192.417 412.404 192.847 412.003 193.289 411.708C193.731 411.452 193.977 411.315 194.026 411.295H194.947V416.894H193.474C193.154 415.95 192.675 415.097 192.037 414.33C191.447 413.583 190.717 412.966 189.845 412.474C188.973 411.983 187.972 411.735 186.842 411.735C185.147 411.735 183.741 412.522 182.624 414.094C181.506 415.667 180.947 418.219 180.947 421.758C180.947 425.297 181.555 427.923 182.771 429.464C183.987 431.006 185.651 431.776 187.763 431.776C188.917 431.776 190.017 431.517 191.06 430.994C192.104 430.475 192.952 429.783 193.602 428.918C194.253 428.053 194.579 427.141 194.579 426.177H195.5C195.5 427.298 195.125 428.344 194.376 429.315C193.627 430.286 192.608 431.065 191.318 431.643C190.029 432.221 188.598 432.512 187.026 432.512C183.096 432.512 180.026 431.58 177.816 429.712V429.716Z" fill="#0055AC"/>
<path d="M203.999 431.258C202.2 430.424 200.811 429.202 199.832 427.59C198.853 425.978 198.364 424.036 198.364 421.756C198.364 419.476 198.853 417.534 199.832 415.922C200.811 414.31 202.2 413.087 203.999 412.254C205.798 411.421 207.897 411 210.295 411C212.694 411 214.793 411.417 216.592 412.254C218.391 413.087 219.78 414.314 220.759 415.922C221.738 417.534 222.227 419.476 222.227 421.756C222.227 424.036 221.738 425.978 220.759 427.59C219.78 429.202 218.391 430.424 216.592 431.258C214.793 432.091 212.694 432.512 210.295 432.512C207.897 432.512 205.798 432.095 203.999 431.258ZM212.957 430.947C213.777 430.298 214.456 429.217 214.995 427.704C215.533 426.19 215.802 424.209 215.802 421.752C215.802 419.295 215.533 417.314 214.995 415.8C214.456 414.287 213.777 413.205 212.957 412.557C212.137 411.908 211.25 411.586 210.295 411.586C209.341 411.586 208.454 411.908 207.634 412.557C206.814 413.205 206.134 414.287 205.596 415.8C205.058 417.314 204.788 419.299 204.788 421.752C204.788 424.205 205.058 426.19 205.596 427.704C206.134 429.217 206.814 430.298 207.634 430.947C208.454 431.596 209.341 431.918 210.295 431.918C211.25 431.918 212.137 431.596 212.957 430.947Z" fill="#0055AC"/>
<path d="M248 432.074V412.195H255.318C259.731 412.195 263.114 413.085 265.469 414.866C267.823 416.647 269 419.14 269 422.353C269 425.567 267.823 428.06 265.469 429.84C263.114 431.621 259.731 432.512 255.318 432.512H248V432.078V432.074ZM255.318 431.784C257.611 431.784 259.386 431.052 260.643 429.593C261.9 428.133 262.529 425.718 262.529 422.353C262.529 418.989 261.9 416.574 260.643 415.114C259.386 413.655 257.611 412.923 255.318 412.923H254.209V431.784H255.318Z" fill="#0055AC"/>
<ellipse cx="169.668" cy="425.747" rx="1.40053" ry="1.75347" fill="#0055AC"/>
<ellipse cx="169.668" cy="418.343" rx="1.40053" ry="1.75347" fill="#0055AC"/>
</svg>
