<svg width="181" height="21" viewBox="0 0 181 21" fill="none" xmlns="http://www.w3.org/2000/svg">
<path d="M0 17.9367V1.31108V17.9367ZM0.0192338 0.452515H9.46302C14.6946 0.452515 18.4644 0.94476 20.7725 1.92543C23.0805 2.90611 24.2346 4.276 24.2346 6.03129C24.2346 7.2142 23.7268 8.17198 22.7112 8.90463C21.6957 9.63727 20.3878 10.1868 18.7876 10.5493C17.095 10.9499 15.2947 11.1598 13.3867 11.1789V11.3239C14.5254 11.362 15.5255 11.4689 16.3872 11.6406C18.5414 12.0603 20.0031 12.8121 20.7725 13.8996L24.4654 18.9823C24.7616 19.3906 25.4078 20.2072 25.7925 20.2072V20.5888L20.7725 20.4781C18.249 20.4781 16.4026 19.6691 15.2332 18.0474L11.2094 12.4381C10.8363 11.9191 10.2362 11.6139 9.59766 11.6139C8.50518 11.6139 7.61658 12.4915 7.61658 13.579V17.9062C7.61658 18.8907 7.71275 20.211 7.71275 20.211V20.4819H0.0192338V20.0545V0.452515ZM9.46302 10.8927C11.6172 10.8927 13.3098 10.4729 14.5407 9.63345C15.7717 8.79397 16.3872 7.59197 16.3872 6.02747C16.3872 4.46298 15.7717 3.2648 14.5407 2.42531C13.3098 1.58582 11.6172 1.16608 9.46302 1.16608H7.61658V10.8927H9.46302V10.8927Z" fill="#6F6F6F"/>
<path d="M126.021 17.9367V1.31108V17.9367ZM126.04 0.452515H135.484C140.716 0.452515 144.486 0.94476 146.794 1.92543C149.102 2.90611 150.256 4.276 150.256 6.03129C150.256 7.2142 149.748 8.17198 148.732 8.90463C147.717 9.63727 146.409 10.1868 144.809 10.5493C143.116 10.9499 141.316 11.1598 139.408 11.1789V11.3239C140.547 11.362 141.547 11.4689 142.408 11.6406C144.563 12.0603 146.024 12.8121 146.794 13.8996L150.487 18.9823C150.783 19.3906 151.429 20.2072 151.814 20.2072V20.5888L146.794 20.4781C144.27 20.4781 142.424 19.6691 141.254 18.0474L137.231 12.4381C136.858 11.9191 136.257 11.6139 135.619 11.6139C134.526 11.6139 133.638 12.4915 133.638 13.579V17.9062C133.638 18.8907 133.734 20.211 133.734 20.211V20.4819H126.04V20.0545V0.452515ZM135.484 10.9003C137.638 10.9003 139.331 10.4806 140.562 9.64109C141.793 8.8016 142.408 7.59961 142.408 6.03511C142.408 4.47061 141.793 3.27243 140.562 2.43294C139.331 1.59345 137.638 1.17371 135.484 1.17371H133.638V10.8927H135.484V10.9003Z" fill="#6F6F6F"/>
<path d="M45.4389 11.2139H35.8983V19.6529H46.7469C46.7469 18.4577 47.2393 17.3496 48.2242 16.3251C48.655 15.8887 49.1628 15.5283 49.7476 15.2437H51.1325V20.3625H28.3005V19.9375L28.2812 19.5125V1.30629L28.3005 0.881299V0.452515H50.2092V5.57516H48.8243C48.2396 5.29057 47.7317 4.93008 47.3009 4.49371C46.316 3.46918 45.8236 2.36117 45.8236 1.16589H35.8983V9.74537H45.4389" fill="#6F6F6F"/>
<path d="M68.6254 18.1099C65.8628 16.3027 64.4814 13.7384 64.4814 10.4094C64.4814 8.22175 65.0877 6.34608 66.3002 4.77859C67.5127 3.21109 69.2163 2.02405 71.411 1.21367C73.6058 0.407093 76.1459 0 79.0313 0C80.781 0 82.546 0.311978 84.3263 0.939738C85.0017 1.16801 85.677 1.47238 86.3523 1.85284C86.8741 1.35824 87.4113 0.970175 87.9638 0.684829C88.5163 0.43753 88.8233 0.304368 88.8847 0.285345H90.0358V5.7031H88.194C87.795 4.79 87.1964 3.9644 86.3983 3.2225C85.6616 2.49963 84.7484 1.9023 83.6587 1.42673C82.569 0.951152 81.3181 0.711461 79.9061 0.711461C77.7881 0.711461 76.0308 1.47238 74.6341 2.99423C73.2375 4.51607 72.5391 6.98526 72.5391 10.4094C72.5391 13.8335 73.2988 16.375 74.8183 17.8664C76.3377 19.3578 78.4174 20.1035 81.0572 20.1035C82.4999 20.1035 83.8736 19.8524 85.1782 19.3464C86.4827 18.8442 87.5417 18.1746 88.3552 17.3376C89.1686 16.5006 89.5753 15.6179 89.5753 14.6858H90.7264C90.7264 15.7701 90.2583 16.7821 89.3221 17.7219C88.3859 18.6616 87.112 19.4149 85.5005 19.9742C83.8889 20.5335 82.1009 20.815 80.1364 20.815C75.225 20.815 71.388 19.9133 68.6254 18.1061V18.1099Z" fill="#6F6F6F"/>
<path d="M100.494 19.6016C98.2425 18.7951 96.5042 17.6121 95.279 16.0525C94.0538 14.4929 93.4412 12.6138 93.4412 10.4075C93.4412 8.20123 94.0538 6.3221 95.279 4.7625C96.5042 3.20289 98.2425 2.01988 100.494 1.21345C102.745 0.407019 105.372 0 108.374 0C111.375 0 114.002 0.403215 116.253 1.21345C118.505 2.01988 120.243 3.2067 121.468 4.7625C122.694 6.3221 123.306 8.20123 123.306 10.4075C123.306 12.6138 122.694 14.4929 121.468 16.0525C120.243 17.6121 118.505 18.7951 116.253 19.6016C114.002 20.408 111.375 20.815 108.374 20.815C105.372 20.815 102.745 20.4118 100.494 19.6016ZM111.705 19.301C112.731 18.6734 113.581 17.6273 114.255 16.1628C114.929 14.6983 115.266 12.7811 115.266 10.4037C115.266 8.02625 114.929 6.10908 114.255 4.64458C113.581 3.18007 112.731 2.13399 111.705 1.50635C110.679 0.878703 109.568 0.566783 108.374 0.566783C107.179 0.566783 106.069 0.878703 105.043 1.50635C104.016 2.13399 103.166 3.18007 102.493 4.64458C101.819 6.10908 101.482 8.03006 101.482 10.4037C101.482 12.7773 101.819 14.6983 102.493 16.1628C103.166 17.6273 104.016 18.6734 105.043 19.301C106.069 19.9287 107.179 20.2406 108.374 20.2406C109.568 20.2406 110.679 19.9287 111.705 19.301Z" fill="#6F6F6F"/>
<path d="M154.981 19.9338V0.452515H164.049C169.516 0.452515 173.708 1.3251 176.625 3.07026C179.542 4.81542 181 7.25864 181 10.4075C181 13.5564 179.542 15.9996 176.625 17.7448C173.708 19.4899 169.516 20.3625 164.049 20.3625H154.981V19.9376V19.9338ZM164.049 19.6493C166.889 19.6493 169.088 18.9322 170.646 17.502C172.204 16.0717 172.982 13.7044 172.982 10.4075C172.982 7.11068 172.204 4.74333 170.646 3.31306C169.088 1.88279 166.889 1.16575 164.049 1.16575H162.674V19.6493H164.049V19.6493Z" fill="#6F6F6F"/>
<circle cx="57.8623" cy="14.6264" r="1.59859" fill="#6F6F6F"/>
<circle cx="57.8623" cy="6.16087" r="1.59859" fill="#6F6F6F"/>
</svg>
