<svg width="132" height="132" viewBox="0 0 132 132" fill="none" xmlns="http://www.w3.org/2000/svg">
<path fill-rule="evenodd" clip-rule="evenodd" d="M26.192 91.8138C40.6575 113.59 70.0374 119.517 91.8138 105.052C113.59 90.586 119.517 61.2062 105.052 39.4297C90.586 17.6533 61.2062 11.7266 39.4297 26.192C17.6533 40.6575 11.7266 70.0374 26.192 91.8138ZM58.0868 71.0979C60.9763 75.4478 66.845 76.6317 71.1949 73.7422C75.5448 70.8527 76.7287 64.984 73.8391 60.6341C70.9496 56.2842 65.0809 55.1003 60.731 57.9898C56.3812 60.8793 55.1973 66.748 58.0868 71.0979Z" fill="#EE7417"/>
<path fill-rule="evenodd" clip-rule="evenodd" d="M18.3808 69.9391C22.5903 71.3243 27.3652 73.1135 32.8206 75.4074C62.0082 87.6802 71.3945 80.0001 82.1662 71.1865C84.9545 68.905 87.8357 66.5475 91.1773 64.4405C98.0251 60.1227 105.575 60.4015 112.748 62.2016C112.197 54.2947 109.65 46.4182 104.951 39.3442C90.4854 17.5677 61.1055 11.641 39.329 26.1065C24.308 36.0845 16.8283 53.1588 18.3808 69.9391ZM71.0942 73.6566C66.7443 76.5461 60.8756 75.3622 57.9861 71.0123C55.0966 66.6624 56.2804 60.7937 60.6303 57.9042C64.9802 55.0147 70.8489 56.1986 73.7384 60.5485C76.628 64.8984 75.4441 70.7671 71.0942 73.6566Z" fill="#0055AC"/>
<path fill-rule="evenodd" clip-rule="evenodd" d="M91.8106 105.052C70.0342 119.517 40.6543 113.59 26.1888 91.8139C25.6223 90.961 25.087 90.0965 24.5828 89.2216C28.8247 89.2384 33.7862 89.7214 39.6249 90.7771C50.5001 92.7435 66.5001 91.9804 83.0922 76.1528C97.201 62.694 104.45 65.2282 112.693 70.6087C111.253 84.1327 104.025 96.9381 91.8106 105.052Z" fill="#FFC800"/>
</svg>
